<?xml version="1.0" encoding="utf-8"?>
<svg width="300" height="300" xmlns="http://www.w3.org/2000/svg" xmlns:xlink="http://www.w3.org/1999/xlink">
  <defs>
    <path id="borderCertificate" d="M 160 200 C 160 200, 150 250, 140 200" stroke="#343a40" fill="#343a40" stroke-width="4"/>
    <path id="mypath" fill="#343a40" d="M 150,150 l25,20 100,0 0,-40 -100,0 z" />
  </defs>
  <use xlink:href="#mypath" transform="rotate(-70 150 150)
           translate(-140 -0)"/>
  <use xlink:href="#mypath" transform="rotate(-110 150 150)
           translate(-140 -0)"/>
  <use xlink:href="#borderCertificate"/>
  <use xlink:href="#borderCertificate" transform="rotate(-20 150 150)"/>
  <use xlink:href="#borderCertificate" transform="rotate(-40 150 150)"/>
  <use xlink:href="#borderCertificate" transform="rotate(-60 150 150)"/>
  <use xlink:href="#borderCertificate" transform="rotate(-80 150 150)"/>
  <use xlink:href="#borderCertificate" transform="rotate(-100 150 150)"/>
  <use xlink:href="#borderCertificate" transform="rotate(-120 150 150)"/>
  <use xlink:href="#borderCertificate" transform="rotate(-140 150 150)"/>
  <use xlink:href="#borderCertificate" transform="rotate(-160 150 150)"/>
  <use xlink:href="#borderCertificate" transform="rotate(-180 150 150)"/>
  <use xlink:href="#borderCertificate" transform="rotate(-200 150 150)"/>
  <use xlink:href="#borderCertificate" transform="rotate(-220 150 150)"/>
  <use xlink:href="#borderCertificate" transform="rotate(-240 150 150)"/>
  <use xlink:href="#borderCertificate" transform="rotate(-260 150 150)"/>
  <use xlink:href="#borderCertificate" transform="rotate(-280 150 150)"/>
  <use xlink:href="#borderCertificate" transform="rotate(-300 150 150)"/>
  <use xlink:href="#borderCertificate" transform="rotate(-320 150 150)"/>
  <use xlink:href="#borderCertificate" transform="rotate(-340 150 150)"/>
  <circle cx="150" cy="150" r="50" fill="#343a40" stroke="#FFF" stroke-width="4"/>
</svg>
