<?xml version="1.0" encoding="utf-8"?>
<!-- Generator: Adobe Illustrator 19.2.1, SVG Export Plug-In . SVG Version: 6.00 Build 0)  -->
<svg version="1.1" id="Calque_1" xmlns="http://www.w3.org/2000/svg" xmlns:xlink="http://www.w3.org/1999/xlink" x="0px" y="0px"
	 viewBox="0 0 188.7 48.6" style="enable-background:new 0 0 188.7 48.6;" xml:space="preserve">
<style type="text/css">
	.st0{fill:#0F0F0F;}
	.st1{fill:#248C90;}
</style>
<g>
	<path class="st0" d="M2.9,9.1c1,0,2.1,1.8,3.3,5.4c4.7,10.7,7.3,16.4,7.8,17c5-10.6,8.1-16.9,9.3-18.9c0.4-0.2,0.8-0.4,1.1-0.4h0.4
		c1.2,0,2.7,2.3,4.5,7c1.6,2.9,3.6,7.1,6.1,12.4h0.2c5.9-14.3,9.1-21.7,9.8-22.2c0.2-0.1,0.4-0.2,0.7-0.2h0.8
		c1.2,0.3,1.8,0.8,1.8,1.6c-7.2,17.5-11.2,26.7-12,27.6l-0.9,0.2c-1.6,0-2.8-1.5-3.7-4.6c-0.9-1.6-3.3-6.6-7.2-15h-0.2
		c0,0.4-3.2,6.9-9.5,19.3l-1.3,0.4h-0.6c-1.1,0-2.3-2-3.7-6.1C3.4,18.7,0.3,11.5,0.3,11.1C0.3,10,1.2,9.3,2.9,9.1z"/>
	<path class="st0" d="M98.5,1.5h0.4c1.2,0.2,1.8,0.7,1.8,1.6v33.7c0,1.1-0.7,1.7-2.2,1.8c-1.2-0.3-1.8-0.9-1.8-1.8V3.2
		C96.6,2.2,97.2,1.7,98.5,1.5z"/>
	<path class="st0" d="M119.3,9.7h2.2c5.4,0,9.6,3,12.6,8.9c0.6,2.1,0.9,4.2,0.9,6.1c0,1.1-0.8,1.8-2.4,2h-22.2
		c0,2.8,1.9,5.2,5.7,7.4c1.4,0.5,2.6,0.8,3.7,0.8h0.9c2.9,0,5.5-0.9,7.7-2.8l0.9-0.2c1.2,0.3,1.8,0.9,1.8,1.8
		c-0.7,2.8-4.1,4.5-10.2,5h-0.9c-6.8,0-11.3-3.4-13.5-10.2c-0.4-0.9-0.6-2.1-0.6-3.7v-1.3c0-6.4,3.4-10.9,10.2-13.5
		C117.7,9.8,118.7,9.7,119.3,9.7z M110.2,23.2H131c0-4-2.3-7-6.9-9.1c-1.1-0.4-2.3-0.6-3.7-0.6c-4.9,0-8.2,2.5-9.8,7.4
		C110.3,21.9,110.2,22.7,110.2,23.2z"/>
	<path class="st0" d="M151.5,9.7h2.2c5.4,0,9.6,3,12.6,8.9c0.6,2.1,0.9,4.2,0.9,6.1c0,1.1-0.8,1.8-2.4,2h-22.2
		c0,2.8,1.9,5.2,5.7,7.4c1.4,0.5,2.6,0.8,3.7,0.8h0.9c2.9,0,5.5-0.9,7.7-2.8l0.9-0.2c1.2,0.3,1.8,0.9,1.8,1.8
		c-0.7,2.8-4.1,4.5-10.2,5h-0.9c-6.8,0-11.3-3.4-13.5-10.2c-0.4-0.9-0.6-2.1-0.6-3.7v-1.3c0-6.4,3.4-10.9,10.2-13.5
		C149.9,9.8,150.9,9.7,151.5,9.7z M142.4,23.2h20.7c0-4-2.3-7-6.9-9.1c-1.1-0.4-2.3-0.6-3.7-0.6c-4.9,0-8.2,2.5-9.8,7.4
		C142.5,21.9,142.4,22.7,142.4,23.2z"/>
	<path class="st0" d="M176.4,1.3c1.4,0.3,2,0.9,2,1.8v6.7h6.1c1.2,0.2,1.9,0.7,1.9,1.7v0.4c0,0.9-0.6,1.5-1.9,1.6h-6.1v13.2
		c0,5.1,0.7,7.6,2.2,7.6c0,0.3,0.6,0.5,1.7,0.6c0.9,0,2.3-0.3,4.2-0.9h0.2c1,0.5,1.5,1.1,1.5,1.8c0,1.7-1.8,2.7-5.4,3h-0.4
		c-3.7,0-6.2-1.8-7.6-5.4c-0.4-1.6-0.6-3-0.6-4.5V13.5h-3.7c-1.2-0.2-1.8-0.7-1.8-1.6v-0.2c0.2-1.2,0.8-1.9,1.8-1.9h3.7V3.4
		C174.6,2,175.3,1.3,176.4,1.3z"/>
	<g>
		<g>
			<path class="st1" d="M70.1,2.8L53,12.6c-0.8,0.5-1.3,1.3-1.3,2.3v19.7c0,0.9,0.5,1.8,1.3,2.3l17.1,9.9c0.8,0.5,1.8,0.5,2.6,0
				l17.1-9.9c0.8-0.5,1.3-1.3,1.3-2.3V14.9c0-0.9-0.5-1.8-1.3-2.3L72.7,2.8C71.9,2.3,70.9,2.3,70.1,2.8z M82.3,32.9l-9.6,5.5
				c-0.8,0.5-1.8,0.5-2.6,0l-9.6-5.5c-0.8-0.5-1.3-1.3-1.3-2.3V19.6c0-0.9,0.5-1.8,1.3-2.3l9.6-5.5c0.8-0.5,1.8-0.5,2.6,0l9.6,5.5
				c0.8,0.5,1.3,1.3,1.3,2.3v11.1C83.7,31.6,83.2,32.5,82.3,32.9z"/>
		</g>
		<g>
			<path class="st1" d="M72,29c-0.4-2-1-2-1.3-0.1c0,0,0,0,0.1,3.3c0.1,3.3,0.1,3.3,0.1,3.3c0.3,2,0.8,2,1.2-0.1c0,0,0,0,0-3.2
				C72,29,72,29,72,29z"/>
		</g>
		<g>
			<path class="st1" d="M74.2,23c-1.6,1.4-1.3,1.9,0.5,1.2c0,0,0,0,3-1.8c3-1.8,3-1.8,3-1.8c1.7-1.4,1.3-1.8-0.7-0.9
				c0,0,0,0-2.9,1.7C74.2,23,74.2,23,74.2,23z"/>
		</g>
		<g>
			<path class="st1" d="M68.6,22.9c1.5,1.3,1.3,1.9-0.5,1.2c0,0,0,0-2.9-1.8c-2.9-1.8-2.9-1.8-2.9-1.8c-1.6-1.3-1.3-1.8,0.7-0.9
				c0,0,0,0,2.8,1.7C68.6,22.9,68.6,22.9,68.6,22.9z"/>
		</g>
	</g>
</g>
</svg>
